<?xml version="1.0" encoding="UTF-8"?>
<svg xmlns="http://www.w3.org/2000/svg" width="64" height="64" viewBox="0 0 64 64">
<g>
<path fill="#1E293B" d="M 36.703125 0.0234375 C 33.496094 0.742188 30.90625 4.789062 29.542969 9.972656 C 31.828125 10.671875 34.113281 10.996094 36.703125 11.078125 Z"/>
<path fill="#1E293B" d="M 38.796875 0 L 38.796875 11.078125 C 41.453125 10.96875 43.824219 10.539062 46.175781 9.789062 C 44.546875 4.695312 41.976562 0.761719 38.796875 0 Z"/>
<path fill="#1E293B" d="M 32.523438 0.417969 C 28.578125 1.34375 25.003906 2.757812 21.691406 5.234375 C 23.675781 6.96875 25.03125 7.765625 27.59375 9.015625 C 28.925781 5.101562 30.550781 1.996094 32.523438 0.417969 Z"/>
<path fill="#1E293B" d="M 43.449219 0.425781 C 45.78125 0.738281 50.53125 2.546875 53.949219 5.199219 C 51.820312 7.117188 50.320312 7.898438 47.945312 9.074219 C 46.675781 5.542969 45.429688 2.566406 43.449219 0.425781 Z"/>
<path fill="#1E293B" d="M 20.011719 6.738281 C 16.050781 10.433594 13.671875 14.476562 12.472656 19.328125 C 15.316406 18.453125 17.742188 16.726562 20.601562 14.46875 C 21.152344 14.113281 21.578125 14.273438 21.902344 14.53125 C 23.277344 15.472656 24.355469 16.265625 25.960938 16.960938 C 26.265625 14.777344 26.609375 13.003906 27.058594 11.203125 C 24.316406 10.074219 22.066406 8.691406 20.011719 6.738281 Z"/>
<path fill="#1E293B" d="M 55.773438 6.675781 C 53.121094 8.902344 51.417969 9.957031 48.621094 11.203125 C 50.003906 15.746094 50.28125 19.691406 50.390625 24.800781 L 63.921875 24.796875 C 63.800781 17.933594 60.933594 11.800781 55.773438 6.675781 Z"/>
<path fill="#1E293B" d="M 29.074219 11.785156 C 28.394531 13.902344 28.121094 15.957031 27.828125 18.019531 C 30.703125 19.476562 33.289062 20.273438 36.601562 20.828125 L 36.628906 13.085938 C 33.976562 13.015625 31.609375 12.554688 29.074219 11.785156 Z"/>
<path fill="#1E293B" d="M 46.664062 11.863281 C 44.050781 12.726562 41.683594 13.140625 38.726562 13.203125 L 38.726562 21.105469 C 40.21875 21.210938 41.449219 21.140625 42.675781 20.972656 C 43.410156 20.878906 43.796875 21.402344 43.882812 21.996094 C 44.023438 22.941406 44.097656 23.890625 44.203125 24.835938 L 48.324219 24.835938 C 48.226562 20.261719 47.675781 16.234375 46.664062 11.863281 Z"/>
<path fill="#1E293B" d="M 50.351562 27.027344 C 50.246094 31.859375 49.695312 36.175781 48.601562 40.828125 C 51.300781 41.949219 53.523438 43.226562 55.703125 44.976562 C 60.773438 39.851562 63.777344 33.683594 63.929688 27.003906 Z"/>
<path fill="#1E293B" d="M 0.453125 23.136719 C 7.265625 23.765625 14.476562 21.691406 19.976562 17.515625 L 20.003906 17.539062 L 20.003906 37.976562 L 1.097656 37.976562 C 0.199219 34.066406 -0.203125 29.851562 0.453125 23.136719 Z"/>
<path fill="#1E293B" d="M 42.152344 23.183594 C 35.703125 23.796875 28.324219 21.550781 22.503906 17.527344 L 22.277344 17.527344 L 22.277344 37.976562 L 41.078125 37.976562 C 42.527344 32.269531 42.503906 27.753906 42.152344 23.183594 Z"/>
<path fill="#1E293B" d="M 44.277344 27.027344 C 44.300781 31.078125 43.628906 35.152344 42.828125 38.925781 C 44.328125 39.277344 44.976562 39.453125 46.628906 39.976562 C 47.828125 35.503906 48.175781 31.953125 48.175781 27.027344 Z"/>
<path fill="#1E293B" d="M 1.601562 40.253906 L 20.003906 40.253906 L 20.003906 63.902344 C 11.675781 58.425781 5.003906 50.953125 1.601562 40.253906 Z"/>
<path fill="#1E293B" d="M 22.253906 40.253906 L 22.253906 63.925781 C 30.175781 58.453125 36.777344 50.753906 40.378906 40.253906 Z"/>
<path fill="#1E293B" d="M 42.425781 41.152344 C 40.925781 45.703125 39.425781 49.003906 37.328125 51.976562 C 40.425781 52.175781 43.675781 48.453125 46.027344 42.253906 C 44.902344 41.675781 43.878906 41.425781 42.425781 41.152344 Z"/>
<path fill="#1E293B" d="M 47.902344 42.777344 C 46.453125 46.726562 45.175781 49.476562 43.351562 51.351562 C 47.550781 50.402344 51.003906 48.476562 53.953125 46.328125 C 52.152344 44.675781 50.277344 43.675781 47.902344 42.777344 Z"/>
</g>
</svg>
