<svg xmlns="http://www.w3.org/2000/svg" width="64" height="64" viewBox="0 0 64 64"><g fill="#1e293b"><path d="M36.703.023c-3.207.72-5.797 4.766-7.16 9.95 2.285.699 4.57 1.023 7.16 1.105ZM38.797 0v11.078c2.656-.11 5.027-.539 7.379-1.289-1.63-5.094-4.2-9.027-7.38-9.789M32.523.418c-3.945.926-7.52 2.34-10.832 4.816 1.985 1.735 3.34 2.532 5.903 3.782 1.332-3.914 2.957-7.02 4.93-8.598M43.45.426c2.331.312 7.081 2.12 10.5 4.773-2.13 1.918-3.63 2.7-6.005 3.875-1.27-3.531-2.515-6.508-4.496-8.648M20.012 6.738c-3.961 3.696-6.34 7.739-7.54 12.59 2.844-.875 5.27-2.601 8.13-4.86.55-.355.976-.195 1.3.063 1.375.942 2.453 1.735 4.059 2.43a54 54 0 0 1 1.098-5.758c-2.743-1.129-4.993-2.512-7.047-4.465M55.773 6.676c-2.652 2.226-4.355 3.281-7.152 4.527 1.383 4.543 1.66 8.488 1.77 13.598l13.53-.004c-.12-6.863-2.987-12.996-8.148-18.121M29.074 11.785c-.68 2.117-.953 4.172-1.246 6.235 2.875 1.457 5.461 2.253 8.774 2.808l.027-7.742c-2.652-.07-5.02-.531-7.555-1.3M46.664 11.863c-2.613.864-4.98 1.278-7.937 1.34v7.902c1.492.106 2.722.036 3.949-.132.734-.094 1.12.43 1.207 1.023.14.945.215 1.895.32 2.84h4.121c-.097-4.574-.648-8.602-1.66-12.973M50.352 27.027c-.106 4.832-.657 9.149-1.75 13.801 2.699 1.121 4.921 2.399 7.101 4.149 5.07-5.125 8.074-11.293 8.227-17.973Z"/><path d="M.453 23.137c6.813.629 14.024-1.446 19.524-5.621l.027.023v20.438H1.098c-.899-3.91-1.301-8.125-.645-14.84M42.152 23.184c-6.449.613-13.828-1.633-19.648-5.657h-.227v20.45h18.801c1.45-5.707 1.426-10.223 1.074-14.793M44.277 27.027c.024 4.051-.648 8.125-1.449 11.899 1.5.351 2.149.527 3.8 1.05 1.2-4.472 1.548-8.023 1.548-12.949ZM1.602 40.254h18.402v23.648c-8.328-5.476-15-12.949-18.402-23.648M22.254 40.254v23.672c7.922-5.473 14.523-13.172 18.125-23.672ZM42.426 41.152c-1.5 4.551-3 7.852-5.098 10.825 3.098.199 6.348-3.524 8.7-9.723-1.126-.578-2.15-.828-3.602-1.102M47.902 42.777c-1.449 3.95-2.726 6.7-4.55 8.575 4.199-.95 7.652-2.875 10.601-5.024-1.8-1.652-3.676-2.652-6.05-3.55"/></g></svg>