<svg xmlns="http://www.w3.org/2000/svg" width="3421.47" height="390.366" fill="none" style="max-height:500px" viewBox="298.22 334.024 3421.47 390.366"><g fill="#6d4aff" clip-path="url(#a)"><path d="M575.266 619.972V519.218c0-41.106 24.084-73.843 72.259-73.843a92.7 92.7 0 0 1 22.968 2.544v41.449c-5.474-.363-10.208-.363-12.403-.363-25.52 0-36.493 11.638-36.493 35.281v95.686zM684.359 534.518c0-50.562 38.318-89.118 91.604-89.118 53.285 0 91.59 38.531 91.59 89.118s-38.318 89.454-91.597 89.454-91.597-38.918-91.597-89.454m137.584 0c0-28.737-19.344-49.106-45.98-49.106-26.637 0-45.987 20.35-45.987 49.106 0 29.099 19.344 49.105 45.987 49.105s45.974-20.031 45.974-49.105zM1001.85 485.749h-49.996v63.656c0 22.187 8.026 32.374 31.019 32.374 2.189 0 7.656 0 14.598-.362v37.468c-9.487 2.543-17.864 4-27.007 4-38.681 0-64.96-23.281-64.96-67.293v-69.843h-31.02v-36.737h7.733c3.06 0 6.09-.601 8.917-1.769a23.3 23.3 0 0 0 7.558-5.038 23.2 23.2 0 0 0 6.812-16.429v-34.6h46.35v57.836h49.996zM1015.71 534.518c0-50.562 38.32-89.118 91.6-89.118 53.29 0 91.6 38.531 91.6 89.118s-38.32 89.48-91.6 89.48c-53.27 0-91.6-38.944-91.6-89.48m137.58 0c0-28.737-19.35-49.106-45.98-49.106-26.64 0-45.99 20.35-45.99 49.106 0 29.099 19.35 49.105 45.99 49.105s45.98-20.031 45.98-49.105M1222.99 619.972v-97.117c0-45.105 28.83-77.48 80.29-77.48 51.09 0 79.92 32.375 79.92 77.48v97.117h-45.98v-93.479c0-25.094-11.32-40.737-33.94-40.737-22.63 0-33.94 15.643-33.94 40.737v93.479zM366 553.831v66.135h46.574v-63.274a23.17 23.17 0 0 1 6.82-16.412 23.33 23.33 0 0 1 16.467-6.799h47.754c22.277-.006 43.64-8.832 59.39-24.534a83.6 83.6 0 0 0 24.602-59.203 83.6 83.6 0 0 0-24.604-59.211c-15.754-15.705-37.121-24.53-59.401-24.533H366v82.669h46.574v-38.975h67.889a39.82 39.82 0 0 1 28.105 11.601 39.56 39.56 0 0 1 11.648 28.01 39.56 39.56 0 0 1-11.643 28.018 39.82 39.82 0 0 1-28.11 11.606h-49.356a65.3 65.3 0 0 0-24.922 4.932 65.1 65.1 0 0 0-21.127 14.068 64.85 64.85 0 0 0-14.112 21.06A64.7 64.7 0 0 0 366 553.831M1564.59 445.341h-20.1v178.464h20.1zM1732 620.376v-172.85h68.24c15.05 0 27.73 4.913 38.05 14.745q15.48 14.742 15.48 36.095c0 14.235-5.16 26.098-15.48 36.095s-23 14.998-38.05 14.998h-44.39v70.922H1732zm23.85-92.782h39.31c11.5 0 20.04-2.794 25.63-8.388 5.75-5.764 8.62-12.709 8.62-20.845q0-12.202-8.37-20.592-8.115-8.39-25.11-8.388h-40.08zm118.75 17.54q0-21.61 12.18-33.806c8.12-8.306 18.77-12.456 31.96-12.456 4.23 0 8.54.592 12.94 1.778v21.355c-1.53-.17-4.57-.252-9.14-.252-7.94 0-14.03 2.201-18.26 6.609s-6.34 11.863-6.34 22.371v69.648h-23.34v-75.247m80.27 75.242V501.413h23.34v118.963zm.76-146.164c-2.87-2.882-4.31-6.44-4.31-10.678 0-4.237 1.44-7.795 4.31-10.677 3.05-3.052 6.68-4.573 10.91-4.573q6.345.001 10.65 4.573c3.05 2.882 4.57 6.44 4.57 10.677 0 4.238-1.53 7.796-4.57 10.678q-4.305 4.322-10.65 4.32c-4.23 0-7.86-1.438-10.91-4.32m86.22 146.164-46.68-118.963h25.62l26.89 74.732q3.045 8.39 4.56 14.745h.51c1.02-4.238 2.54-9.151 4.57-14.745l26.88-74.732h25.88l-46.68 118.963h-21.56zm132.93 2.541c-15.9 0-29.51-5.593-40.84-16.776-11.16-11.183-16.75-26.268-16.75-45.246s5.59-34.064 16.75-45.247c11.33-11.183 24.94-16.776 40.84-16.776 8.45 0 16.32 1.866 23.59 5.593 7.44 3.558 13.36 8.641 17.75 15.251l2.03-18.303h20.55v118.963h-20.55l-2.03-18.303c-4.4 6.61-10.31 11.776-17.75 15.508-7.27 3.558-15.14 5.336-23.59 5.336m-23.09-91.508c-7.44 7.285-11.16 17.117-11.16 29.486q0 18.552 11.16 29.743c7.44 7.285 16.4 10.93 26.89 10.93 10.48 0 18.94-3.728 26.38-11.183 7.44-7.625 11.16-17.457 11.16-29.485 0-12.029-3.72-21.778-11.16-29.233-7.44-7.625-16.23-11.441-26.38-11.441s-19.45 3.728-26.89 11.183m173.53 91.508c-17.58 0-32.13-5.764-43.63-17.287q-17.25-17.538-17.25-44.735 0-27.2 17.25-44.484c11.5-11.693 26.05-17.539 43.63-17.539q21.57 0 36.78 12.203 15.225 12.204 19.53 31.012h-24.1c-6.08-14.576-16.82-21.861-32.21-21.861-10.83 0-19.79 3.816-26.89 11.441-7.11 7.625-10.66 17.369-10.66 29.233 0 11.863 3.55 21.607 10.66 29.232 7.1 7.626 16.07 11.441 26.89 11.441 15.05 0 25.79-7.285 32.21-21.86h24.1q-4.305 18.808-19.53 31.011-15.21 12.204-36.78 12.204zm119.21-29.232q1.26-8.136 4.56-17.03l27.65-75.242h24.86L2435.55 670.2h-25.12l20.8-51.345-45.4-117.437h25.87l27.65 75.243c2.2 5.929 3.72 11.61 4.57 17.029h.51zm198.69 29.232c-18.43 0-32.04-6.862-40.84-20.591l-2.02 18.05h-20.55v-172.85h23.34v70.664c8.79-12.879 22.15-19.318 40.07-19.318 15.73 0 29.18 5.593 40.34 16.776s16.74 26.268 16.74 45.247-5.58 34.063-16.74 45.246-24.61 16.776-40.34 16.776m-29.93-91.508c-7.27 7.455-10.91 17.287-10.91 29.486 0 12.198 3.64 22.03 10.91 29.485q11.16 11.183 26.64 11.183c10.31 0 19.28-3.646 26.38-10.93 7.11-7.285 10.66-17.2 10.66-29.744 0-12.543-3.55-22.453-10.66-29.743-7.1-7.29-15.9-10.93-26.38-10.93-10.49 0-19.2 3.728-26.64 11.183zm152.28 62.276c.85-5.424 2.37-11.101 4.57-17.03l27.65-75.242h24.86L2756.59 670.2h-25.11l20.8-51.345-45.4-117.437h25.87l27.65 75.243c2.2 5.929 3.72 11.61 4.56 17.029h.51zm223.81 26.691-2.02-18.05c-8.8 13.724-22.41 20.591-40.84 20.591-15.73 0-29.17-5.593-40.34-16.776-11.16-11.183-16.74-26.268-16.74-45.246s5.58-34.064 16.74-45.247c11.17-11.183 24.61-16.776 40.34-16.776 17.93 0 31.28 6.439 40.08 19.318v-70.664h23.33v172.85zm-65.95-89.225q-10.65 10.928-10.65 29.744c0 12.543 3.55 22.453 10.65 29.743 7.1 7.285 15.9 10.93 26.39 10.93 10.48 0 19.11-3.728 26.37-11.183 7.45-7.455 11.17-17.287 11.17-29.485s-3.72-22.031-11.17-29.486c-7.26-7.455-16.07-11.182-26.37-11.182-10.31 0-19.28 3.645-26.39 10.93zm173.03 91.766c-17.42 0-31.8-5.764-43.13-17.287-11.16-11.523-16.75-26.438-16.75-44.735s5.59-33.213 16.75-44.736 25.53-17.287 43.13-17.287c15.71 0 29.08 6.016 40.08 18.05 11.15 11.863 16.73 26.521 16.73 43.978 0 3.727-.16 6.779-.51 9.151h-92.07c1.69 9.662 5.75 17.37 12.17 23.134 6.59 5.594 14.46 8.388 23.6 8.388 14.71 0 24.68-5.594 29.92-16.777h23.84c-3.54 11.523-10.23 20.757-20.04 27.707-9.63 6.95-20.88 10.42-33.73 10.42zm-35.52-72.19h68.23c-.84-8.305-4.32-15.42-10.4-21.354q-9.135-9.151-22.32-9.152c-8.79 0-16.91 2.795-23.34 8.389-6.25 5.423-10.32 12.796-12.17 22.112zm121.25-63.801c0-12.709 3.55-22.706 10.66-29.996q10.65-10.929 27.39-10.93c4.74 0 9.22.593 13.45 1.779v19.318c-2.71-.34-5.07-.51-7.11-.51-14.03 0-21.05 6.95-21.05 20.844v13.982h33.23v19.829h-33.23v99.134h-23.34v-99.134h-22.83v-19.829h22.83zm123.78 135.997c-15.89 0-29.51-5.594-40.84-16.777-11.15-11.183-16.74-26.268-16.74-45.246s5.59-34.064 16.74-45.247c11.33-11.182 24.95-16.776 40.84-16.776 8.45 0 16.32 1.866 23.6 5.594 7.43 3.557 13.35 8.641 17.75 15.25l2.03-18.303h20.55v118.963h-20.55l-2.03-18.303c-4.4 6.61-10.32 11.776-17.75 15.508-7.28 3.558-15.14 5.337-23.6 5.337m-23.09-91.509c-7.43 7.285-11.15 17.117-11.15 29.486s3.72 22.283 11.15 29.743c7.45 7.285 16.41 10.93 26.9 10.93 10.5 0 18.94-3.728 26.38-11.183 7.45-7.625 11.16-17.457 11.16-29.485s-3.72-21.778-11.16-29.233c-7.44-7.625-16.23-11.44-26.38-11.44-10.14 0-19.45 3.727-26.9 11.182m207.53 77.274c-9.13 9.491-21.4 14.235-36.78 14.235s-27.65-4.744-36.79-14.235c-9.12-9.492-13.69-21.778-13.69-36.858v-70.412h23.33v68.633c0 9.827 2.3 17.457 6.86 22.876 4.56 5.424 11.33 8.135 20.29 8.135s15.73-2.711 20.29-8.135c4.57-5.424 6.85-13.049 6.85-22.876v-68.633h23.34v70.412c0 15.08-4.56 27.366-13.7 36.858m48.85 11.693V447.526h23.33v172.85h-23.33zm107.55 1.526c-11.84 0-21.65-3.558-29.42-10.678-7.61-7.12-11.42-16.859-11.42-29.232l-.26-60.755h-21.05v-19.829h21.05v-39.91h23.6v39.91h34.5v19.829h-34.5v57.955q0 12.204 5.58 17.029c3.89 3.053 9.97 4.574 18.26 4.574q3.555.001 8.88-.253v19.571c-4.9 1.186-9.97 1.779-15.22 1.779z"/></g><defs><clipPath id="a"><path fill="#fff" d="M366 366h3298v304H366z"/></clipPath></defs></svg>